<?xml version="1.0" encoding="UTF-8"?>
<svg version="1.1" xmlns="http://www.w3.org/2000/svg" width="1190" height="1190">
<path d="M0 0 C392.7 0 785.4 0 1190 0 C1190 392.7 1190 785.4 1190 1190 C797.3 1190 404.6 1190 0 1190 C0 797.3 0 404.6 0 0 Z " fill="#FCDE04" transform="translate(0,0)"/>
<path d="M0 0 C0.89038971 -0.00067474 1.78077942 -0.00134949 2.69815063 -0.00204468 C51.70728471 0.05685325 96.29333248 13.8918172 132.875 47.25 C133.62265625 47.92546875 134.3703125 48.6009375 135.140625 49.296875 C141.45434787 55.30261139 146.6261662 62.32433113 151.875 69.25 C152.34373535 69.86327148 152.8124707 70.47654297 153.29541016 71.10839844 C178.84243942 104.63500826 193.82951783 144.65506961 199.875 186.25 C200.05691895 187.44173828 200.23883789 188.63347656 200.42626953 189.86132812 C206.34531811 229.8686928 206.15994501 271.30010075 199.875 311.25 C199.68776367 312.45027832 199.50052734 313.65055664 199.30761719 314.88720703 C192.92265933 354.3162516 178.88159018 392.17054151 154.875 424.25 C154.02064847 425.41392683 153.16647262 426.57798264 152.3125 427.7421875 C130.12853887 457.61811923 99.38143548 479.54669298 63.4375 489.875 C62.40415527 490.17422363 61.37081055 490.47344727 60.30615234 490.78173828 C50.59762123 493.49500706 40.87987769 495.13045856 30.875 496.25 C30.18341797 496.3435376 29.49183594 496.4370752 28.77929688 496.53344727 C20.48695407 497.55191613 12.14102375 497.43606798 3.79980469 497.43530273 C1.14501769 497.43748356 -1.50934896 497.45567524 -4.1640625 497.47460938 C-17.57958015 497.52014469 -30.23245696 496.20602829 -43.3125 493.0625 C-44.19687744 492.85036865 -45.08125488 492.6382373 -45.99243164 492.41967773 C-55.32134195 490.08807314 -64.2092428 486.81959662 -73.125 483.25 C-74.95611328 482.54230469 -74.95611328 482.54230469 -76.82421875 481.8203125 C-96.07606042 474.04932966 -113.76669138 462.08454214 -128.65283203 447.67089844 C-130.1388435 446.23663861 -131.64460083 444.82542224 -133.15234375 443.4140625 C-167.88566943 410.39396481 -186.60285054 357.68553239 -193.125 311.25 C-193.30691895 309.9722168 -193.48883789 308.69443359 -193.67626953 307.37792969 C-204.41417354 229.89107741 -197.13770462 141.11379701 -151.125 75.25 C-150.72410156 74.67556152 -150.32320312 74.10112305 -149.91015625 73.50927734 C-134.15703668 51.39577284 -113.63700915 35.30007639 -90.125 22.25 C-89.16851563 21.70859375 -88.21203125 21.1671875 -87.2265625 20.609375 C-60.01972145 6.08842171 -30.51641116 0.02076066 0 0 Z " fill="#000000" transform="translate(974.125,344.75)"/>
<path d="M0 0 C1.66925677 1.47789026 3.31708591 2.97604715 4.95800781 4.48535156 C5.65087891 5.12230957 6.34375 5.75926758 7.05761719 6.41552734 C9.29717063 8.49952898 11.50642856 10.61131682 13.70800781 12.73535156 C14.41248047 13.39688232 15.11695313 14.05841309 15.84277344 14.73999023 C18.8684054 17.72559468 20.75824473 19.98482159 22.34863281 23.96972656 C21.34626122 32.99107091 9.40023489 41.26020153 3.11035156 47.60644531 C2.55056673 48.17155382 1.9907819 48.73666233 1.41403389 49.31889534 C-1.53989397 52.29934261 -4.49734363 55.27624841 -7.45727539 58.25073242 C-9.89760136 60.70447352 -12.33041939 63.16531313 -14.75708008 65.63256836 C-17.70425999 68.62901616 -20.66348107 71.61304794 -23.63183403 74.58851814 C-24.75599945 75.71938935 -25.87591146 76.85450576 -26.99138069 77.99395561 C-28.5488843 79.58306424 -30.12141344 81.15568554 -31.69848633 82.7253418 C-32.58782364 83.62276596 -33.47716095 84.52019012 -34.39344788 85.44480896 C-37.39350599 87.75617161 -39.28671421 88.313099 -43.04199219 88.48535156 C-45.13183594 87.29785156 -45.13183594 87.29785156 -46.97949219 85.48535156 C-47.6665625 84.83179688 -48.35363281 84.17824219 -49.06152344 83.50488281 C-50.25822464 82.28457803 -51.4459891 81.05529033 -52.61621094 79.80957031 C-71.5732612 59.80200341 -100.09836743 49.25274054 -127.22949219 48.27050781 C-154.18475286 47.63128038 -174.65294126 54.61450181 -194.57714844 73.09082031 C-227.73445626 105.30227783 -241.41119941 155.01445254 -242.20996094 200.26269531 C-242.51458247 247.49213412 -235.54407335 304.96301413 -201.04199219 340.48535156 C-190.55741416 350.72731126 -176.17588302 357.1378511 -162.04199219 360.48535156 C-160.79160156 360.783125 -159.54121094 361.08089844 -158.25292969 361.38769531 C-130.05200682 367.36757739 -95.86489396 365.12693285 -70.55371094 350.16503906 C-49.73249828 336.24105548 -37.89283895 315.47520532 -32.66699219 291.30566406 C-30.95041314 280.81307462 -30.10243975 270.11812681 -29.80371094 259.49316406 C-29.76250122 258.16115967 -29.76250122 258.16115967 -29.72045898 256.80224609 C-29.87667117 254.49660237 -29.87667117 254.49660237 -31.07530212 252.86260986 C-34.11014438 250.73733259 -37.25910369 251.087973 -40.83056641 251.13232422 C-41.62276581 251.13016403 -42.41496521 251.12800385 -43.23117065 251.1257782 C-44.95158814 251.12268998 -46.67202764 251.12630078 -48.39242172 251.13579178 C-51.11627885 251.14951279 -53.83940596 251.14310307 -56.56326294 251.13095093 C-64.30736031 251.09996372 -72.05128929 251.10486239 -79.79541016 251.125 C-84.5323137 251.13591831 -89.2686695 251.12272453 -94.00549698 251.09510422 C-95.80998519 251.08966311 -97.61452817 251.09372901 -99.41897202 251.10750198 C-101.94479791 251.12655433 -104.46883375 251.11514977 -106.99462891 251.09716797 C-107.73869995 251.11050674 -108.482771 251.12384552 -109.24938965 251.1375885 C-112.97030201 251.07874156 -114.92494933 250.56651933 -118.0045166 248.43087769 C-120.51245838 244.80521067 -120.74946888 242.00667848 -120.68896484 237.74511719 C-120.69772644 236.98188644 -120.70648804 236.2186557 -120.71551514 235.43229675 C-120.73745954 232.91814741 -120.72297558 230.40576768 -120.70605469 227.89160156 C-120.70942429 226.13952294 -120.71427811 224.38744661 -120.72055054 222.63537598 C-120.72791509 218.96681419 -120.7172302 215.29886192 -120.69384766 211.63037109 C-120.66535963 206.9323907 -120.68176591 202.23583847 -120.71170998 197.53791046 C-120.72979452 193.92097245 -120.72401973 190.30437199 -120.71107101 186.68742371 C-120.70774017 184.95549856 -120.71181279 183.22354257 -120.72346878 181.49165344 C-120.73619727 179.06880766 -120.71677622 176.64826082 -120.68896484 174.22558594 C-120.699086 173.5127092 -120.70920715 172.79983246 -120.71963501 172.06535339 C-120.64290363 168.4496885 -120.18967643 166.67419056 -117.94352531 163.80211067 C-114.34207695 160.92649701 -112.55023385 160.85732239 -107.98254395 160.85043335 C-107.2835122 160.8426334 -106.58448045 160.83483344 -105.86426592 160.82679713 C-103.52778557 160.80689293 -101.192937 160.82263352 -98.85644531 160.83837891 C-97.17910309 160.83160201 -95.50176832 160.82269847 -93.82444763 160.81182861 C-89.27271465 160.78903703 -84.7215484 160.79787091 -80.16980553 160.81372404 C-75.4061976 160.8263838 -70.64263816 160.81464272 -65.87902832 160.80679321 C-57.87938729 160.79769687 -49.87997708 160.80968416 -41.88037109 160.83349609 C-32.63196392 160.86070737 -23.38410787 160.85189319 -14.13571405 160.82436407 C-6.19500082 160.80167356 1.7455465 160.79847262 9.68628168 160.81155741 C14.42884003 160.81935225 19.17113933 160.82039263 23.91368103 160.80387497 C28.37247958 160.78943028 32.83056767 160.79945156 37.28928947 160.82834625 C38.92553973 160.83495713 40.56184979 160.83305929 42.19807625 160.82203293 C44.43237742 160.80836447 46.66440338 160.82550413 48.89855957 160.85043335 C50.14846931 160.85231848 51.39837906 160.85420361 52.68616486 160.85614586 C56.89374413 161.66530232 58.37822828 163.11811294 60.95800781 166.48535156 C61.57883358 168.67616844 61.57883358 168.67616844 61.57273865 170.9180603 C61.58250229 171.77518112 61.59226593 172.63230194 61.60232544 173.51539612 C61.58007401 174.90697182 61.58007401 174.90697182 61.55737305 176.32666016 C61.56131577 177.31457047 61.56525848 178.30248077 61.56932068 179.32032776 C61.5760393 182.59199554 61.54681255 185.86226986 61.51660156 189.13378906 C61.51234615 191.42566661 61.51002229 193.71754848 61.50953674 196.00942993 C61.50336362 200.82647106 61.48065299 205.64304869 61.44506836 210.45996094 C61.40025458 216.56822946 61.38506604 222.67607286 61.38133144 228.78449059 C61.37684706 233.52928702 61.36144003 238.27399812 61.34245491 243.01875687 C61.33369946 245.26610246 61.32690983 247.51345676 61.32229424 249.76081467 C61.16512813 303.65231512 49.6555986 358.84013037 12.45410156 400.00878906 C5.81586269 406.59508554 -1.16231652 412.2346964 -8.97949219 417.36035156 C-9.89263184 417.96186035 -10.80577148 418.56336914 -11.74658203 419.18310547 C-35.56369029 434.69624364 -60.08282902 444.71050728 -87.85449219 450.73535156 C-88.54542969 450.88649414 -89.23636719 451.03763672 -89.94824219 451.19335938 C-102.88291601 453.84126164 -115.78779987 454.86754012 -128.97949219 454.79785156 C-129.68788239 454.79636108 -130.39627258 454.79487061 -131.12612915 454.79333496 C-144.59187772 454.74292329 -157.73606059 453.60210163 -171.04199219 451.48535156 C-172.46560059 451.26854736 -172.46560059 451.26854736 -173.91796875 451.04736328 C-221.58114846 443.67500095 -263.01951915 421.15483959 -291.85400391 382.07910156 C-292.99514905 380.54819415 -294.176077 379.04718667 -295.35839844 377.54785156 C-311.40271311 357.01112879 -324.32557663 331.65530705 -331.04199219 306.48535156 C-331.51113037 304.73424072 -331.51113037 304.73424072 -331.98974609 302.94775391 C-336.92828961 284.30113813 -340.8451533 265.67471654 -343.04199219 246.48535156 C-343.12673294 245.75679962 -343.21147369 245.02824768 -343.29878235 244.27761841 C-343.97126848 238.12339723 -344.22957107 232.03317804 -344.28027344 225.84472656 C-344.29006729 224.85257141 -344.29986115 223.86041626 -344.30995178 222.8381958 C-344.48385947 200.63818173 -343.961661 179.3768352 -340.04199219 157.48535156 C-339.70126459 155.43903251 -339.36795582 153.39157765 -339.03463745 151.34403992 C-332.47431914 111.23707066 -319.77474093 74.03318401 -298.04199219 39.48535156 C-297.35363281 38.38835937 -296.66527344 37.29136719 -295.95605469 36.16113281 C-283.65578656 17.17593635 -267.70873683 1.20212509 -249.04199219 -11.51464844 C-248.31141602 -12.01448242 -247.58083984 -12.51431641 -246.828125 -13.02929688 C-173.9582608 -62.28595176 -67.35632162 -57.97165363 0 0 Z " fill="#000000" transform="translate(357.0419921875,389.5146484375)"/>
<path d="M0 0 C1.48900904 -0.0195581 1.48900904 -0.0195581 3.00809908 -0.03951132 C4.09126264 -0.02835771 5.1744262 -0.01720411 6.2904129 -0.00571251 C7.44680252 -0.01351246 8.60319213 -0.02131242 9.79462385 -0.02934873 C13.00064278 -0.04584187 16.20571519 -0.03990711 19.4117105 -0.02441764 C22.87056121 -0.01310858 26.32928358 -0.03056455 29.78810883 -0.04431725 C36.56238779 -0.06655914 43.33638989 -0.06174437 50.11067975 -0.04725404 C55.61588065 -0.03596548 61.12100392 -0.03442922 66.62621307 -0.03987312 C67.40951924 -0.04063929 68.19282541 -0.04140545 68.99986812 -0.04219484 C70.59110282 -0.04379345 72.1823375 -0.04541452 73.77357215 -0.04705779 C88.69721808 -0.06131807 103.62071049 -0.04491824 118.54433125 -0.01805596 C131.35157371 0.00428311 144.15858958 0.00040306 156.96582794 -0.02264977 C171.83578806 -0.0494029 186.7056136 -0.05994475 201.57559443 -0.04458845 C203.1609996 -0.04299569 204.74640479 -0.04142384 206.33181 -0.03987312 C207.1118747 -0.03910175 207.89193941 -0.03833037 208.69564244 -0.03753562 C214.19470827 -0.03321714 219.69368878 -0.04050832 225.19274139 -0.05227089 C231.8936436 -0.06628906 238.59425293 -0.06251062 245.29512155 -0.03586717 C248.71458963 -0.0227194 252.13356929 -0.0175921 255.55303383 -0.03411293 C259.25838393 -0.04772265 262.96234897 -0.03070483 266.66761017 -0.00571251 C268.29235551 -0.02244292 268.29235551 -0.02244292 269.94992399 -0.03951132 C277.19161092 0.05560809 277.19161092 0.05560809 281.14629173 2.93647385 C283.57857524 6.51011739 283.68238428 9.55569739 283.62598419 13.73662758 C283.63912659 14.93999512 283.63912659 14.93999512 283.65253448 16.16767311 C283.67448778 18.81165568 283.6599912 21.45395703 283.64307404 24.0979557 C283.64644336 25.93971515 283.65129696 27.78147242 283.65756989 29.62322426 C283.66493567 33.48008872 283.65424536 37.33637355 283.630867 41.19317055 C283.60237919 46.13326339 283.61878477 51.07199807 283.64872932 56.01204109 C283.66681038 59.81426639 283.66104061 63.61617048 283.64809036 67.41840553 C283.64475857 69.23964537 283.64883546 71.06091452 283.66048813 72.88212013 C283.67321054 75.42945861 283.65380278 77.97460814 283.62598419 80.52178383 C283.63610535 81.27206352 283.6462265 82.02234322 283.65665436 82.79535866 C283.58268728 86.45733664 283.1649842 88.38485585 280.92884064 91.32292938 C277.28368188 94.17283799 274.58773747 94.32600009 270.1468277 94.24825478 C269.36471377 94.25449376 268.58259984 94.26073273 267.77678549 94.26716077 C265.15926975 94.28206831 262.54324948 94.2614426 259.92578888 94.24102211 C258.04816407 94.24456332 256.17054235 94.25034091 254.2929306 94.25818825 C250.25168751 94.27036823 246.2108665 94.2668991 242.16963577 94.25135612 C235.78335126 94.22706654 229.39743747 94.23852249 223.01114655 94.25502968 C211.76411544 94.27952854 200.51725264 94.27372002 189.27021027 94.26122475 C172.32786177 94.24263814 155.38554463 94.24742983 138.44321978 94.28125894 C132.09066958 94.29279677 125.73838792 94.28830213 119.38585258 94.27123857 C115.44038927 94.26336095 111.49500478 94.26757912 107.54954338 94.27494812 C105.71570376 94.27576079 103.88185362 94.27137814 102.04804039 94.26150513 C99.55087322 94.24870767 97.0543924 94.25412557 94.55722809 94.26412392 C93.82620609 94.25586574 93.09518409 94.24760757 92.3420099 94.23909914 C89.48801076 94.2663188 87.45871963 94.31758211 85.02918243 95.89583588 C83.75092429 98.00567734 83.60190986 99.26635531 83.59806061 101.72820473 C83.58960114 102.56099449 83.58114166 103.39378426 83.57242584 104.25181007 C83.57849854 105.16203423 83.58457123 106.07225838 83.59082794 107.01006508 C83.58557098 107.97128777 83.58031403 108.93251045 83.57489777 109.9228611 C83.5616729 113.10639032 83.57044479 116.28942123 83.58057404 119.4729557 C83.57855402 121.68108657 83.57564319 123.88921678 83.57187653 126.09734535 C83.5674498 130.72765892 83.57389556 135.357799 83.58789825 139.98809242 C83.60499019 145.93028764 83.59515089 151.87207638 83.57718086 157.81425667 C83.56635253 162.37465935 83.56978502 166.9349653 83.57756424 171.49537086 C83.57956887 173.68668605 83.57709779 175.87800995 83.57012558 178.06931496 C83.56252685 181.12922957 83.57409344 184.18848123 83.59082794 187.24834633 C83.58475525 188.15857048 83.57868256 189.06879463 83.57242584 190.00660133 C83.58088531 190.8393911 83.58934479 191.67218086 83.59806061 192.53020668 C83.59919168 193.25360489 83.60032276 193.9770031 83.60148811 194.72232246 C83.87392166 196.68791804 83.87392166 196.68791804 85.05765533 198.36257553 C88.02266822 200.31722339 90.57922047 199.99935349 94.10166168 199.99428749 C94.831653 199.99740649 95.56164432 200.00052549 96.31375659 200.003739 C98.76667115 200.01069866 101.21900541 199.99633444 103.67188263 199.98223305 C105.42773808 199.98306359 107.18359334 199.98527899 108.9394455 199.98877907 C112.72416802 199.99373468 116.50873578 199.98961893 120.29344559 199.97876549 C126.27680377 199.96243591 132.25996674 199.97085553 138.24332428 199.98360634 C154.18390884 200.01376007 170.12445876 200.01225855 186.0650574 199.99335349 C196.53468055 199.98102755 207.00408339 199.98286028 217.47368109 200.01174128 C223.42269953 200.02699725 229.37112106 200.01946032 235.32010245 199.99503112 C239.02100222 199.98497038 242.72162725 199.9956404 246.42249489 200.012146 C248.13938809 200.01560192 249.85632308 200.01048232 251.57316017 199.99617767 C253.91695016 199.97785759 256.25866268 199.99021083 258.6023941 200.01015663 C259.91389624 200.00902555 261.22539837 200.00789448 262.57664299 200.00672913 C266.86324911 200.79098041 268.34078795 202.22236609 270.97901154 205.6292057 C271.47488425 208.41486391 271.66543526 210.59073091 271.62598419 213.36944008 C271.63912659 214.51428619 271.63912659 214.51428619 271.65253448 215.68226051 C271.67447888 218.19640986 271.65999492 220.70878958 271.64307404 223.2229557 C271.64644363 224.97503432 271.65129745 226.72711066 271.65756989 228.47918129 C271.66493444 232.14774307 271.65424955 235.81569535 271.630867 239.48418617 C271.60237898 244.18216656 271.61878526 248.87871879 271.64872932 253.5766468 C271.66681387 257.19358481 271.66103908 260.81018528 271.64809036 264.42713356 C271.64475952 266.15905871 271.64883214 267.8910147 271.66048813 269.62290382 C271.67321662 272.0457496 271.65379557 274.46629645 271.62598419 276.88897133 C271.63610535 277.60184807 271.6462265 278.31472481 271.65665436 279.04920387 C271.58021174 282.65126177 271.12362051 284.44246657 268.90036774 287.31343842 C265.20724517 290.24098707 263.27878738 290.25228783 258.6023941 290.24825478 C257.50272716 290.25761324 257.50272716 290.25761324 256.38084471 290.26716077 C253.9291276 290.28205966 251.47900943 290.26144927 249.02735138 290.24102211 C247.26795131 290.2445636 245.50855453 290.25034152 243.7491684 290.25818825 C239.9632866 290.27036536 236.17785541 290.26690261 232.39198685 290.25135612 C226.4089535 290.22705993 220.42631567 290.23852511 214.44327545 290.25502968 C203.90644588 290.27952527 193.369796 290.27372112 182.83295441 290.26122475 C166.9602248 290.24263627 151.08752868 290.24743348 135.21482432 290.28125894 C129.26368642 290.29279497 123.3128352 290.28830465 117.36171317 290.27123857 C113.66535543 290.26335972 109.96908177 290.26757988 106.27272606 290.27494812 C104.5549902 290.27576064 102.83724311 290.27138009 101.11953545 290.26150513 C98.77999916 290.24870278 96.44119498 290.25412791 94.10166168 290.26412392 C92.7909136 290.26223879 91.48016552 290.26035366 90.1296978 290.25841141 C87.04139987 290.38444183 87.04139987 290.38444183 85.05765533 291.88634491 C83.72213486 294.04426421 83.60186564 295.34725879 83.59806061 297.8800602 C83.58960114 298.74650658 83.58114166 299.61295296 83.57242584 300.50565529 C83.57849854 301.45328239 83.58457123 302.4009095 83.59082794 303.37725258 C83.58557098 304.37748955 83.58031403 305.37772652 83.57489777 306.4082737 C83.56167081 309.72165888 83.57044558 313.03456545 83.58057404 316.3479557 C83.57855408 318.64576752 83.5756433 320.94357871 83.57187653 323.24138832 C83.56744951 328.06001316 83.5738965 332.87847131 83.58789825 337.6970768 C83.60499018 343.88140315 83.59515104 350.06533894 83.57718086 356.24965096 C83.56635332 360.99534499 83.56978467 365.74094604 83.57756424 370.48664284 C83.57956909 372.76727278 83.57709703 375.0479111 83.57012558 377.32853127 C83.56252818 380.51296875 83.5740917 383.69676895 83.59082794 386.88115883 C83.58475525 387.82878593 83.57868256 388.77641304 83.57242584 389.75275612 C83.58088531 390.6192025 83.58934479 391.48564888 83.59806061 392.37835121 C83.59919168 393.1312468 83.60032276 393.88414238 83.60148811 394.65985298 C83.8703775 396.67602228 83.8703775 396.67602228 85.02918243 398.3720665 C88.03531972 400.3102533 91.0957268 400.03339121 94.55722809 399.99428749 C95.33622203 399.99740649 96.11521598 400.00052549 96.9178158 400.003739 C99.53655158 400.01070112 102.1547443 399.9963318 104.77344513 399.98223305 C106.6475256 399.98306355 108.5216059 399.98527882 110.39568329 399.98877907 C114.43577337 399.99373535 118.47571849 399.98961756 122.51579666 399.97876549 C128.90241002 399.96243902 135.28884044 399.97085405 141.67545319 399.98360634 C158.69046396 400.01376329 175.70544229 400.01225688 192.72046626 399.99335349 C203.8954828 399.98102893 215.07029294 399.98285634 226.24528563 400.01174128 C232.59570936 400.02700056 238.945574 400.01945534 245.29596305 399.99503112 C249.24596378 399.98497312 253.19570695 399.9956374 257.14567757 400.012146 C258.97867459 400.01560304 260.81171073 400.01047765 262.64465523 399.99617767 C265.14604747 399.9778696 267.64549065 399.99020329 270.1468277 400.01015663 C270.87338826 399.99743701 271.59994881 399.9847174 272.34852636 399.97161233 C276.19526262 400.03780751 277.86630673 400.54072664 280.92884064 402.94497299 C283.56815593 406.40055635 283.68538288 409.18573319 283.62598419 413.36944008 C283.63912659 414.51428619 283.63912659 414.51428619 283.65253448 415.68226051 C283.67447888 418.19640986 283.65999492 420.70878958 283.64307404 423.2229557 C283.64644363 424.97503432 283.65129745 426.72711066 283.65756989 428.47918129 C283.66493444 432.14774307 283.65424955 435.81569535 283.630867 439.48418617 C283.60237898 444.18216656 283.61878526 448.87871879 283.64872932 453.5766468 C283.66681387 457.19358481 283.66103908 460.81018528 283.64809036 464.42713356 C283.64475952 466.15905871 283.64883214 467.8910147 283.66048813 469.62290382 C283.67321662 472.0457496 283.65379557 474.46629645 283.62598419 476.88897133 C283.63610535 477.60184807 283.6462265 478.31472481 283.65665436 479.04920387 C283.58377502 482.48335642 283.09158247 484.46439331 281.14629173 487.31244659 C276.45329766 490.74521417 272.3467502 490.32260345 266.66761017 490.26412392 C265.51122056 490.27192387 264.35483094 490.27972382 263.16339922 490.28776014 C259.95738029 490.30425328 256.75230788 490.29831852 253.54631257 490.28282905 C250.08746186 490.27151999 246.62873949 490.28897595 243.16991425 490.30272865 C236.39563528 490.32497055 229.62163318 490.32015578 222.84734333 490.30566545 C217.34214242 490.29437689 211.83701915 490.29284063 206.33181 490.29828453 C205.54850383 490.2990507 204.76519766 490.29981686 203.95815495 490.30060624 C202.36692025 490.30220486 200.77568558 490.30382592 199.18445092 490.3054692 C184.26080499 490.31972948 169.33731258 490.30332965 154.41369182 490.27646737 C141.60644936 490.2541283 128.7994335 490.25800835 115.99219513 490.28106117 C101.12223501 490.3078143 86.25240947 490.31835616 71.38242865 490.30299985 C69.79702348 490.3014071 68.21161829 490.29983524 66.62621307 490.29828453 C65.84614837 490.29751315 65.06608366 490.29674178 64.26238063 490.29594702 C58.7633148 490.29162855 53.26433429 490.29891972 47.76528168 490.3106823 C41.06437947 490.32470047 34.36377014 490.32092202 27.66290152 490.29427858 C24.24343345 490.28113081 20.82445379 490.27600351 17.40498924 490.29252434 C13.69963914 490.30613406 9.9956741 490.28911624 6.2904129 490.26412392 C4.66566756 490.28085433 4.66566756 490.28085433 3.00809908 490.29792273 C2.01542638 490.28488399 1.02275369 490.27184526 0 490.25841141 C-1.28261679 490.25719377 -1.28261679 490.25719377 -2.59114504 490.25595152 C-6.29323781 489.30104589 -7.74456379 487.66285087 -10.02098846 484.6292057 C-10.51276589 481.73650637 -10.69502259 479.43439885 -10.65019417 476.5472126 C-10.65746137 475.73421037 -10.66472858 474.92120813 -10.672216 474.08356947 C-10.69052627 471.34754161 -10.67308312 468.612905 -10.65590668 465.87688637 C-10.66166549 463.90034787 -10.66960498 461.92381471 -10.6795429 459.9472928 C-10.70047236 454.50674378 -10.69007325 449.06663163 -10.67461181 443.62608075 C-10.6633272 437.76232031 -10.68074664 431.89863649 -10.69451141 426.03489113 C-10.71677923 414.54420891 -10.71192681 403.05368972 -10.69744821 391.56300104 C-10.68599293 382.22676782 -10.68448656 372.89057192 -10.69006729 363.55433083 C-10.69044922 362.89134004 -10.69083114 362.22834925 -10.69122464 361.54526784 C-10.6927813 358.85407283 -10.69437329 356.16287784 -10.69602346 353.47168289 C-10.7113236 328.21851043 -10.69744304 302.96542699 -10.67053897 277.71226827 C-10.64681034 255.26900571 -10.64893346 232.82588499 -10.67284393 210.38262367 C-10.69960847 185.17608764 -10.71023859 159.96963029 -10.69478261 134.76308203 C-10.69317899 132.07674823 -10.69161479 129.39041441 -10.69006729 126.70408058 C-10.6896719 126.04262112 -10.68927652 125.38116165 -10.68886915 124.69965797 C-10.6831782 114.70437081 -10.68987072 104.70915202 -10.70246506 94.71387672 C-10.71646814 83.35045915 -10.71273619 71.98721432 -10.68606134 60.62381661 C-10.67289375 54.82270237 -10.66782098 49.02187646 -10.6843071 43.22076416 C-10.69915856 37.91472024 -10.69109778 32.6092331 -10.66441934 27.30324 C-10.65881396 25.37936191 -10.66172056 23.4554372 -10.67379828 21.53158885 C-10.68891753 18.92411538 -10.67350075 16.31857014 -10.65019417 13.71119881 C-10.6619 12.95728165 -10.67360583 12.20336449 -10.68566638 11.42660135 C-10.61668619 7.58808396 -10.12304856 5.76521465 -7.79547489 2.66340649 C-4.82381296 0.48464037 -3.61607307 0.00343289 0 0 Z " fill="#000000" transform="translate(471.02098846435547,348.37079429626465)"/>
<path d="M0 0 C30.92339481 26.45461754 43.70362736 70.38547847 46.89038086 109.61450195 C47.59843175 119.18171596 47.82556018 128.69529018 47.8125 138.28515625 C47.81209213 139.42244171 47.81209213 139.42244171 47.81167603 140.58270264 C47.78984605 153.91016208 47.25977826 167.10854725 45.625 180.34765625 C45.53379883 181.09499023 45.44259766 181.84232422 45.34863281 182.61230469 C41.53644401 211.83908554 30.54126865 242.50972214 11.625 265.34765625 C10.90570312 266.23066406 10.18640625 267.11367188 9.4453125 268.0234375 C-5.903219 286.02109276 -29.08015044 295.56645935 -52.3125 297.60546875 C-75.32969948 298.48622893 -98.2542251 289.50716008 -115.375 274.34765625 C-140.10290345 251.35734628 -152.99572183 214.82018379 -157 182.03515625 C-157.12117187 181.11798828 -157.24234375 180.20082031 -157.3671875 179.25585938 C-159.05199629 165.96967705 -159.58189073 152.66730933 -159.5625 139.28515625 C-159.56222809 138.57009918 -159.56195618 137.85504211 -159.56167603 137.11831665 C-159.54023633 124.76956479 -158.91552285 112.60433566 -157.375 100.34765625 C-157.27848145 99.51556641 -157.18196289 98.68347656 -157.08251953 97.82617188 C-155.52279141 84.58000791 -152.47861874 72.03063548 -148.375 59.34765625 C-148.02912842 58.27306152 -148.02912842 58.27306152 -147.67626953 57.17675781 C-138.47760421 29.26679142 -122.21810973 3.75158109 -95.5625 -9.83984375 C-64.51675821 -25.186215 -27.20840341 -22.03975369 0 0 Z " fill="#FCDE04" transform="translate(1033.375,454.65234375)"/>
</svg>
